<?xml version="1.0" standalone="no"?>
<!DOCTYPE svg PUBLIC "-//W3C//DTD SVG 20010904//EN"
 "http://www.w3.org/TR/2001/REC-SVG-20010904/DTD/svg10.dtd">
<svg version="1.0" xmlns="http://www.w3.org/2000/svg"
 width="1280.000000pt" height="1279.000000pt" viewBox="0 0 1280.000000 1279.000000"
 preserveAspectRatio="xMidYMid meet">
<metadata>
Created by potrace 1.15, written by Peter Selinger 2001-2017
</metadata>
<g transform="translate(0.000000,1279.000000) scale(0.100000,-0.100000)"
fill="#000000" stroke="none">
<path d="M6201 10649 c-13 -5 -36 -18 -51 -29 -24 -17 -29 -18 -34 -5 -17 44
-96 38 -147 -11 -27 -25 -27 -26 -38 -6 -22 42 -90 35 -143 -15 l-26 -25 -30
22 c-37 28 -67 22 -117 -21 -33 -29 -37 -30 -54 -15 -9 9 -31 16 -47 16 -31 0
-104 -43 -104 -62 0 -6 -11 -1 -24 11 -35 33 -83 23 -129 -28 -35 -38 -36 -39
-53 -20 -9 10 -27 19 -38 19 -29 0 -81 -34 -101 -64 -16 -24 -18 -25 -46 -11
-25 13 -33 14 -63 1 -19 -8 -45 -30 -59 -50 -21 -32 -26 -34 -37 -21 -24 30
-70 18 -115 -28 -38 -40 -43 -42 -62 -30 -13 8 -31 11 -47 7 -29 -7 -86 -67
-86 -90 0 -13 -3 -12 -24 1 -15 10 -33 14 -50 9 -29 -7 -86 -67 -86 -90 0 -11
-5 -14 -17 -9 -39 16 -52 16 -81 1 -17 -9 -38 -32 -49 -56 -12 -28 -23 -38
-33 -34 -35 14 -47 13 -76 -5 -18 -11 -40 -37 -49 -59 -16 -37 -20 -39 -41
-30 -38 18 -80 -7 -106 -62 -22 -45 -25 -47 -58 -43 -29 4 -41 0 -63 -22 -15
-15 -32 -45 -39 -67 -8 -26 -15 -35 -22 -28 -29 29 -99 -18 -117 -79 -10 -34
-14 -36 -43 -33 -42 5 -84 -36 -92 -89 -6 -36 -9 -38 -40 -37 -18 1 -40 -5
-49 -12 -24 -20 -45 -65 -45 -99 0 -24 -3 -28 -20 -24 -53 14 -97 -30 -102
-101 -3 -30 -7 -36 -23 -35 -55 7 -95 -38 -95 -106 0 -33 -2 -35 -34 -35 -45
0 -73 -35 -82 -101 -4 -27 -11 -46 -16 -43 -19 12 -58 -7 -73 -36 -8 -16 -15
-49 -15 -73 0 -42 -1 -44 -24 -40 -42 8 -76 -38 -76 -103 0 -51 -1 -54 -25
-54 -49 0 -87 -72 -71 -135 6 -23 3 -25 -24 -25 -42 0 -65 -38 -64 -106 1 -39
-2 -51 -12 -47 -41 15 -81 -58 -69 -127 6 -36 5 -40 -13 -40 -47 0 -81 -97
-52 -149 8 -16 5 -20 -21 -25 -22 -4 -34 -15 -45 -42 -14 -34 -14 -53 2 -105
3 -12 -3 -19 -21 -23 -47 -12 -65 -96 -33 -158 7 -15 4 -18 -16 -18 -47 0 -71
-70 -45 -137 8 -20 7 -29 -2 -32 -6 -2 -20 -12 -30 -22 -22 -22 -25 -91 -6
-129 12 -23 10 -27 -18 -45 -36 -25 -44 -74 -21 -129 8 -20 11 -36 6 -36 -19
0 -50 -45 -50 -72 0 -16 7 -44 14 -63 8 -19 11 -35 5 -35 -5 0 -18 -9 -29 -20
-25 -25 -25 -73 -1 -120 l19 -35 -25 -23 c-22 -20 -25 -30 -21 -67 3 -24 15
-57 27 -73 20 -29 20 -30 1 -35 -33 -8 -44 -54 -25 -103 9 -23 23 -48 30 -54
13 -10 11 -15 -10 -32 -34 -27 -34 -80 1 -131 l25 -38 -22 -18 c-33 -26 -29
-82 8 -129 l28 -37 -23 -23 c-30 -30 -24 -71 18 -123 29 -36 29 -37 10 -54
-34 -30 -20 -95 28 -139 l21 -18 -21 -28 c-18 -25 -19 -33 -9 -61 6 -19 23
-46 38 -61 25 -26 25 -29 10 -46 -31 -34 -13 -100 38 -140 21 -17 23 -21 10
-32 -8 -7 -15 -28 -15 -47 0 -28 9 -44 41 -76 34 -34 39 -44 30 -59 -23 -37
-13 -76 31 -118 31 -31 38 -44 30 -52 -24 -24 -13 -67 27 -111 36 -39 39 -47
34 -83 -5 -36 -1 -45 39 -92 37 -43 43 -57 40 -85 -3 -27 2 -40 25 -63 41 -42
63 -80 63 -107 0 -14 19 -48 45 -79 29 -35 45 -65 45 -82 0 -15 10 -37 23 -49
34 -35 57 -74 57 -98 0 -11 16 -37 35 -56 19 -19 35 -38 35 -42 0 -5 9 -16 20
-26 11 -10 20 -25 20 -33 0 -8 16 -33 35 -56 38 -44 56 -67 109 -136 37 -49
91 -112 117 -138 9 -10 24 -32 33 -49 9 -18 21 -33 27 -33 16 0 69 -62 69 -81
0 -19 54 -69 74 -69 17 0 56 -43 56 -61 0 -22 40 -56 75 -65 40 -9 65 -32 65
-60 0 -27 43 -64 74 -64 30 0 66 -27 60 -45 -8 -19 38 -63 73 -70 56 -12 73
-24 73 -49 0 -34 44 -66 89 -66 38 0 63 -11 60 -26 -8 -46 28 -75 98 -79 43
-3 48 -6 51 -29 5 -41 46 -66 108 -66 53 0 54 0 54 -30 0 -42 38 -64 105 -63
49 1 52 0 48 -21 -4 -17 3 -30 24 -46 24 -19 36 -21 86 -17 55 5 57 4 57 -18
0 -13 7 -30 15 -38 18 -19 68 -30 95 -23 11 3 29 9 40 12 16 4 20 1 20 -18 0
-29 9 -42 39 -58 22 -11 77 -9 115 6 12 5 16 0 16 -20 0 -49 84 -72 153 -42
13 6 17 3 17 -13 0 -54 72 -77 145 -47 34 15 35 14 35 -9 0 -28 34 -55 70 -55
14 0 44 9 68 20 l42 19 0 -24 c0 -28 34 -55 70 -55 14 0 44 9 68 20 l42 19 0
-22 c0 -13 5 -28 12 -35 17 -17 100 -15 124 3 27 20 34 19 34 -10 0 -49 69
-59 137 -21 l42 24 3 -21 c4 -28 47 -52 79 -44 14 4 42 17 61 31 l36 24 6 -24
c13 -50 88 -51 149 -4 24 19 24 19 35 -5 6 -14 22 -27 36 -31 32 -8 88 11 111
36 21 24 35 26 35 5 0 -8 11 -22 25 -31 31 -20 71 -12 116 25 33 28 34 28 44
7 8 -15 22 -22 52 -24 36 -3 47 2 81 33 l40 35 17 -26 c15 -23 22 -26 57 -21
27 4 51 16 74 38 l34 33 16 -22 c24 -35 75 -30 122 12 36 33 39 34 50 15 8
-13 23 -19 48 -19 29 0 44 8 76 39 39 39 39 40 59 20 32 -32 67 -24 116 25 44
44 45 44 64 25 10 -10 24 -19 30 -19 27 0 81 35 99 66 21 33 21 33 41 13 10
-10 27 -19 37 -19 30 0 82 39 99 75 16 33 17 34 30 15 32 -45 105 -15 143 58
11 22 13 22 29 8 10 -9 29 -16 44 -16 30 0 84 50 93 86 7 28 16 30 34 9 29
-35 95 -2 124 64 16 35 20 38 33 25 34 -34 94 -6 123 58 10 23 21 35 24 29 4
-6 21 -11 38 -11 36 0 83 46 93 90 7 30 19 38 30 20 12 -19 52 -10 79 17 15
15 32 46 38 69 10 36 14 40 26 28 7 -8 21 -14 30 -14 40 0 92 63 92 111 0 16
4 19 18 14 42 -18 52 -16 81 13 20 19 33 45 37 71 5 34 10 41 23 35 41 -17 52
-15 80 13 20 21 31 44 36 76 6 40 9 45 25 35 45 -28 93 17 106 101 5 33 9 39
20 30 38 -32 104 33 104 102 0 35 1 36 37 35 31 -1 40 4 60 33 14 21 23 49 23
74 0 33 2 38 15 27 38 -31 95 29 95 100 0 45 1 46 28 42 20 -2 34 4 52 23 20
22 25 36 25 85 0 53 1 57 18 48 43 -23 96 57 83 126 -6 31 -5 32 22 28 45 -6
67 27 67 103 0 47 3 61 12 58 50 -19 90 37 80 112 -6 43 -5 45 17 45 51 0 81
78 56 144 -9 24 -8 26 20 26 51 0 77 74 50 144 -9 24 -7 26 19 26 16 0 35 7
42 16 15 19 18 99 5 128 -8 15 -6 17 11 12 36 -11 65 23 65 76 0 25 -5 55 -11
66 -15 28 -15 29 18 35 51 10 62 75 24 150 -13 26 -12 27 11 27 29 0 56 33 56
70 0 14 -9 43 -20 65 -25 48 -25 45 3 45 13 0 28 5 35 12 19 19 14 89 -8 131
l-20 37 24 0 c13 0 29 7 36 15 19 22 14 81 -9 121 -26 43 -26 44 -2 44 49 0
59 81 17 143 l-25 36 22 3 c28 4 52 47 44 79 -4 14 -18 42 -31 62 -18 26 -21
37 -11 37 49 0 61 89 19 140 -15 17 -25 32 -23 33 2 1 13 7 23 12 10 6 22 20
26 31 10 25 -12 89 -39 118 l-21 23 25 11 c46 21 28 111 -33 158 -12 8 -9 13
12 27 19 13 26 26 26 51 0 32 -29 81 -58 99 -10 7 -8 14 12 32 14 13 26 31 26
41 0 28 -32 85 -57 101 l-23 15 25 24 c14 13 25 30 25 39 0 26 -27 71 -59 98
-23 19 -27 26 -15 31 22 8 33 47 22 79 -6 15 -27 42 -48 60 -37 31 -38 34 -19
45 33 21 25 75 -16 117 -20 19 -41 35 -47 35 -6 0 -1 11 11 24 32 34 21 76
-32 121 -22 19 -36 35 -30 35 21 0 31 45 18 77 -13 29 -62 73 -84 73 -16 0
-13 17 4 24 42 16 -2 110 -65 136 -28 12 -29 14 -15 30 26 28 18 65 -20 99
-20 17 -39 31 -43 31 -4 0 -13 4 -21 9 -11 7 -10 13 4 35 16 24 16 27 -1 57
-16 27 -57 57 -99 73 -6 2 -6 8 3 17 23 25 14 65 -23 98 -20 17 -39 31 -43 31
-23 1 -34 18 -23 39 16 30 -7 69 -63 106 -32 21 -44 35 -40 47 3 9 -1 28 -8
42 -13 23 -83 86 -98 86 -4 0 -7 14 -7 30 0 33 -39 82 -85 106 -17 9 -28 23
-28 35 0 28 -56 95 -91 109 -16 7 -29 18 -29 26 0 29 -61 103 -93 113 -25 8
-39 23 -55 56 -22 45 -71 85 -104 85 -10 0 -23 17 -34 46 -17 46 -22 49 -106
83 -18 7 -28 18 -28 32 0 34 -53 79 -94 79 -33 0 -36 2 -36 29 0 43 -49 81
-105 81 -42 0 -44 1 -47 32 -4 44 -46 73 -107 73 -41 0 -47 3 -43 17 11 45
-64 95 -129 86 -26 -4 -29 -2 -29 22 0 44 -33 65 -101 65 -57 0 -59 1 -59 27
0 44 -44 71 -107 66 -49 -4 -53 -3 -53 17 0 40 -35 60 -106 60 -54 0 -64 2
-64 17 0 9 -12 26 -27 38 -23 18 -38 21 -85 18 -50 -4 -58 -2 -58 13 0 10 -12
27 -27 39 -24 19 -36 21 -85 16 -45 -4 -58 -3 -58 8 0 40 -81 61 -142 37 -25
-9 -28 -8 -28 9 0 32 -43 53 -97 48 -27 -3 -55 -8 -63 -11 -10 -5 -18 0 -25
15 -15 35 -59 52 -103 40 -21 -5 -45 -13 -54 -17 -12 -5 -18 -3 -18 7 0 43
-102 66 -146 33 -24 -18 -34 -19 -34 -2 0 45 -79 64 -139 34 -30 -15 -32 -14
-60 14 -35 35 -54 36 -113 6 l-45 -23 -25 28 c-32 34 -61 35 -120 4 l-44 -23
-10 21 c-13 30 -83 34 -130 7 l-34 -20 -24 24 c-27 26 -46 30 -85 14z m3832
-2544 c8 -45 -22 -24 -42 28 -10 27 -10 27 13 12 13 -9 26 -27 29 -40z m347
-976 c0 -5 -4 -9 -10 -9 -5 0 -10 7 -10 16 0 8 5 12 10 9 6 -3 10 -10 10 -16z
m19 -163 c7 -8 8 -17 3 -20 -6 -3 -12 3 -15 14 -6 24 -4 25 12 6z m23 -198
c-9 -9 -12 -7 -12 12 0 19 3 21 12 12 9 -9 9 -15 0 -24z m9 -175 c-9 -16 -10
-14 -11 12 0 21 3 26 11 18 8 -8 8 -16 0 -30z m-36 -30 l18 -28 -21 19 c-12
11 -22 23 -22 28 0 14 7 9 25 -19z m48 -138 c-7 -21 -13 -19 -13 6 0 11 4 18
10 14 5 -3 7 -12 3 -20z m-4 -153 c6 -12 5 -23 -5 -37 -13 -17 -14 -16 -14 18
0 41 5 46 19 19z m-7 -180 c3 -10 -1 -27 -8 -37 -13 -17 -14 -15 -14 24 0 41
13 49 22 13z m-29 -202 c-14 -14 -15 -13 -9 10 3 14 6 34 7 45 0 14 3 11 10
-10 6 -23 5 -33 -8 -45z m-11 -138 c3 -10 -1 -23 -9 -30 -11 -11 -13 -7 -13
18 0 33 15 41 22 12z m-32 -181 c0 -10 -8 -25 -17 -32 -15 -12 -16 -12 -10 4
4 10 7 28 7 38 0 11 5 17 10 14 6 -3 10 -14 10 -24z m-49 -198 c-22 -29 -24
-22 -10 28 11 40 13 42 19 19 4 -16 1 -33 -9 -47z m-53 -168 c-21 -20 -21 -20
-14 0 4 11 10 34 13 50 l7 30 8 -30 c6 -24 3 -34 -14 -50z m-53 -170 c-11 -12
-21 -21 -22 -20 -1 1 5 25 15 55 l17 54 5 -34 c4 -25 0 -40 -15 -55z m-69
-176 c-27 -32 -51 -103 -40 -120 3 -6 -4 -18 -16 -26 -24 -17 -59 -86 -60
-118 0 -11 -12 -28 -26 -38 -25 -18 -24 -17 9 50 37 74 130 282 143 323 9 24
9 24 12 -8 2 -24 -4 -41 -22 -63z m-193 -404 c-3 -18 -18 -40 -37 -55 l-31
-25 16 25 c9 14 24 40 33 58 20 40 26 39 19 -3z m-87 -148 c-6 -28 -17 -47
-30 -53 -25 -11 -66 -80 -66 -111 0 -13 -8 -24 -20 -28 -27 -9 -68 -64 -76
-102 -4 -19 -15 -35 -30 -41 -28 -13 -84 -88 -84 -113 0 -10 -9 -20 -19 -24
-31 -10 -91 -82 -91 -110 0 -18 -5 -25 -18 -25 -26 0 -92 -69 -99 -102 -4 -18
-12 -28 -23 -28 -26 0 -75 -44 -94 -85 -11 -22 -24 -35 -36 -35 -23 0 -100
-73 -100 -95 0 -8 -8 -15 -18 -15 -29 0 -97 -54 -112 -89 -9 -23 -19 -31 -38
-31 -18 0 -40 -15 -73 -49 -26 -27 -63 -54 -83 -61 -20 -6 -51 -29 -69 -51
-19 -21 -42 -39 -51 -39 -27 0 -72 -27 -100 -61 -18 -21 -38 -33 -57 -34 -37
-3 -105 -48 -114 -75 -5 -15 -12 -19 -25 -15 -25 8 -84 -18 -117 -51 -17 -17
-39 -28 -60 -29 -18 -1 -51 -14 -75 -30 -23 -15 -57 -29 -76 -30 -26 -2 7 18
134 80 211 102 299 152 494 281 468 310 870 721 1175 1202 32 50 59 92 60 92
1 0 -3 -20 -9 -43z m-5346 -1473 c0 -2 -7 -4 -15 -4 -8 0 -15 4 -15 10 0 5 7
7 15 4 8 -4 15 -8 15 -10z m156 -81 c-8 -8 -36 5 -36 17 0 7 6 7 21 0 11 -7
18 -14 15 -17z m155 -58 l34 -14 -31 -1 c-19 0 -34 6 -38 15 -7 18 -6 18 35 0z
m3083 -43 c-22 -22 -34 -27 -63 -23 l-35 4 55 22 c71 30 75 30 43 -3z m-2890
-33 c2 -2 -8 -5 -22 -6 -26 -1 -52 12 -52 27 0 7 64 -11 74 -21z m2718 -32
c-17 -18 -29 -22 -59 -19 l-38 5 50 18 c67 23 72 23 47 -4z m-2563 -17 c52
-14 52 -19 1 -16 -24 1 -47 9 -58 20 -16 17 -16 18 0 13 9 -3 35 -11 57 -17z
m2404 -33 c-22 -19 -36 -23 -68 -19 l-40 5 60 18 c79 23 81 23 48 -4z m-2264
-7 c49 -13 52 -20 9 -20 -18 0 -44 10 -58 21 -15 13 -18 19 -8 15 9 -2 35 -10
57 -16z m2096 -39 c-21 -12 -42 -16 -65 -13 l-35 5 50 13 c73 17 84 16 50 -5z
m-1918 -7 l38 -8 -34 -7 c-27 -6 -38 -3 -55 13 -16 16 -17 20 -4 15 9 -3 34
-9 55 -13z m1747 -33 c-24 -14 -40 -17 -65 -12 l-34 8 40 7 c22 4 45 9 50 11
31 10 36 2 9 -14z m-1576 -1 c13 0 21 -4 18 -9 -12 -18 -43 -17 -67 2 l-24 20
25 -6 c14 -4 35 -7 48 -7z m1406 -29 c-24 -14 -42 -17 -85 -13 l-54 6 70 12
c100 16 103 16 69 -5z m-1224 -2 c23 0 23 -1 5 -9 -29 -13 -39 -12 -61 6 -18
15 -18 15 6 10 14 -3 36 -6 50 -7z m197 -23 c1 -1 -10 -7 -26 -13 -23 -8 -33
-7 -52 7 -23 18 -22 18 27 13 27 -3 50 -6 51 -7z m848 -5 c-20 -12 -36 -15
-47 -10 -25 13 -84 11 -122 -5 -26 -11 -38 -11 -62 -1 -26 11 -19 13 86 22 63
5 129 11 145 11 l30 2 -30 -19z m-693 -17 c-28 -12 -36 -12 -60 0 -26 15 -25
15 33 15 l60 -1 -33 -14z m170 -9 c-30 -13 -36 -13 -55 0 -20 14 -18 15 33 15
l55 -1 -33 -14z m176 1 c-24 -13 -32 -13 -55 0 -27 14 -27 14 27 14 54 0 54 0
28 -14z"/>
</g>
</svg>
