<?xml version="1.0" standalone="no"?>
<!DOCTYPE svg PUBLIC "-//W3C//DTD SVG 20010904//EN"
 "http://www.w3.org/TR/2001/REC-SVG-20010904/DTD/svg10.dtd">
<svg version="1.0" xmlns="http://www.w3.org/2000/svg"
 width="1280.000000pt" height="917.000000pt" viewBox="0 0 1280.000000 917.000000"
 preserveAspectRatio="xMidYMid meet">
<metadata>
Created by potrace 1.15, written by Peter Selinger 2001-2017
</metadata>
<g transform="translate(0.000000,917.000000) scale(0.100000,-0.100000)"
fill="#000000" stroke="none">
<path d="M5995 9160 c-361 -35 -601 -79 -909 -166 -1375 -391 -2518 -1456
-3005 -2802 -374 -1031 -374 -2183 0 -3214 487 -1346 1632 -2413 3005 -2801
330 -94 580 -138 940 -168 191 -15 724 -7 909 16 1062 126 1976 566 2715 1305
740 740 1187 1669 1305 2712 101 899 -51 1807 -435 2586 -224 456 -505 848
-870 1212 -739 739 -1650 1177 -2715 1306 -160 19 -788 28 -940 14z"/>
</g>
</svg>
